PathFileType	4	(X/Y/Z)	./resultDataOpenSim/trcMotMarkerGrf/sub06/qtm-15-07.trc
DataRate	CameraRate	NumFrames	NumMarkers	Units	OrigDataRate	OrigDataStartFrame	OrigNumFrames
250.000000	250.000000	8	24	m	250.000000	266	530
Frame#	Time	L.Toe.Tip			R.Toe.Tip			L.Ankle.Lat			R.Ankle.Lat			L.Ankle.Med			R.Ankle.Med			L.Heel			R.Heel			L.Knee.Lat			R.Knee.Lat			L.Knee.Med			R.Knee.Med			L.Thigh.Upper			R.Thigh.Upper			L.ASIS			R.ASIS			V.Sacral			L.Acromium			R.Acromium			C7			L.Elbow			R.Elbow			L.Wrist.Lat			R.Wrist.Lat
		X1	Y1	Z1	X2	Y2	Z2	X3	Y3	Z3	X4	Y4	Z4	X5	Y5	Z5	X6	Y6	Z6	X7	Y7	Z7	X8	Y8	Z8	X9	Y9	Z9	X10	Y10	Z10	X11	Y11	Z11	X12	Y12	Z12	X13	Y13	Z13	X14	Y14	Z14	X15	Y15	Z15	X16	Y16	Z16	X17	Y17	Z17	X18	Y18	Z18	X19	Y19	Z19	X20	Y20	Z20	X21	Y21	Z21	X22	Y22	Z22	X23	Y23	Z23	X24	Y24	Z24

266	1.06	0.13270614	-0.064466908	-0.031288678	0.92213778	0.096344318	0.084332957	0.054207077	0.020396496	-0.088752773	0.78108015	0.090881009	0.10532932	0.050801477	0.042476641	-0.0049860672	0.79890771	0.12174758	0.020095893	-0.025983687	0.034635081	-0.054490105	0.74121543	0.057273887	0.039662815	0.25291656	0.34305757	-0.098927903	0.69481259	0.46735933	0.13482279	0.23820277	0.3492105	0.02176901	0.67657756	0.4488587	0.010607779	0.34551907	0.70982001	-0.16004037	0.44100636	0.73479363	0.18249012	0.43737049	0.75944334	-0.13862848	0.50425079	0.78428211	0.10278351	0.29537414	0.84162898	0.026885548	0.48639915	1.2496303	-0.17006422	0.44126193	1.2382489	0.18747977	0.38520844	1.2821065	-0.0038913124	0.58954151	0.93870941	-0.23708808	0.21516391	1.0308994	0.22972817	0.82416156	0.97241843	-0.14799586	0.15628101	0.82607014	0.33865505
267	1.064	0.1329945	-0.064415075	-0.031242265	0.92533418	0.091068267	0.082817353	0.056503982	0.021794149	-0.088993393	0.78481377	0.086114296	0.10447143	0.053758726	0.043902665	-0.0052771577	0.80198833	0.11702336	0.019302285	-0.02315458	0.037576859	-0.054488744	0.74398429	0.052845202	0.039396368	0.25945998	0.34211572	-0.099241628	0.70095614	0.46393845	0.13349238	0.24534189	0.34823334	0.021597671	0.68170886	0.44568007	0.0094901537	0.35224485	0.7090936	-0.15968111	0.45031301	0.73437778	0.18210129	0.44451353	0.75862094	-0.1387402	0.51295111	0.7832836	0.10187266	0.30312464	0.84095499	0.027694017	0.49310542	1.2491943	-0.16920042	0.44915526	1.2369053	0.1884398	0.39264288	1.2811404	-0.0024957353	0.59780834	0.93866732	-0.23578684	0.22281847	1.0300821	0.23072886	0.8318144	0.97391326	-0.14555557	0.16331471	0.82543548	0.33948547
268	1.068	0.13327729	-0.064378064	-0.03122901	0.92818792	0.085630166	0.081244063	0.058852684	0.023236511	-0.089276838	0.78827813	0.081079909	0.10367982	0.056905437	0.045311761	-0.0056215764	0.80470365	0.11206151	0.018624354	-0.020132296	0.040568271	-0.054501902	0.74642154	0.048070253	0.039286503	0.26617585	0.34110632	-0.0996408	0.70696447	0.4604182	0.13210951	0.25267336	0.34716499	0.021326377	0.68668085	0.4423448	0.0083967988	0.35903869	0.70838502	-0.15934733	0.45968998	0.73398139	0.18165719	0.45171081	0.75780643	-0.13885525	0.52171453	0.78228857	0.10090945	0.31086834	0.84035391	0.028524651	0.49980984	1.2488149	-0.16829061	0.45707703	1.2355717	0.18941287	0.4000952	1.2801692	-0.0010574682	0.60592865	0.93861675	-0.23445845	0.23066084	1.0291783	0.23172279	0.83937385	0.9752779	-0.14314461	0.17056364	0.82466342	0.34030988
269	1.072	0.13355122	-0.064354546	-0.031268843	0.93068257	0.080018361	0.07959752	0.061291041	0.024695472	-0.089579285	0.79128196	0.075867014	0.10305206	0.06025305	0.046696273	-0.0060190391	0.80700813	0.10683518	0.018060303	-0.016900725	0.043592907	-0.054540676	0.74848748	0.043050579	0.039308084	0.27307169	0.340028	-0.10013906	0.71279746	0.45679475	0.13065081	0.2601977	0.34599933	0.020956085	0.6914787	0.43881542	0.0072852253	0.3659055	0.70767834	-0.1590318	0.46907886	0.73356299	0.18113817	0.45896811	0.75700014	-0.13897601	0.53054302	0.78129434	0.099906561	0.31871469	0.83975254	0.02938564	0.50650552	1.2484914	-0.16734123	0.46502429	1.2342552	0.19039604	0.407513	1.2792328	0.00037900124	0.61390746	0.93857199	-0.23311655	0.23861205	1.0281913	0.23271724	0.8468396	0.97651783	-0.14076382	0.17802448	0.82376065	0.34112897
270	1.076	0.13383279	-0.064338972	-0.031355847	0.93291622	0.07407707	0.077879263	0.063882701	0.026147215	-0.089910038	0.79386334	0.070495659	0.1025832	0.063814393	0.048051252	-0.0064738668	0.80895707	0.10136006	0.017519345	-0.013446831	0.046650489	-0.054591486	0.75016573	0.038226004	0.039314034	0.28014796	0.33888208	-0.10073997	0.71840599	0.45300841	0.12915548	0.26791898	0.34472873	0.02048611	0.69605882	0.43505374	0.0061260655	0.3728476	0.70696169	-0.15872829	0.47842688	0.73307256	0.18052531	0.46628259	0.75620722	-0.13911118	0.53943635	0.78029944	0.098880061	0.32670929	0.83911392	0.030280953	0.51318616	1.2482154	-0.16635039	0.47299245	1.2329615	0.19138671	0.41488115	1.2783345	0.0018005918	0.6217515	0.93855928	-0.23178198	0.2466329	1.0271242	0.23372365	0.8542099	0.97763341	-0.13840918	0.18569905	0.82273255	0.34194472
271	1.08	0.13415572	-0.064322534	-0.031455319	0.935278	0.067465679	0.076193306	0.066684703	0.027573723	-0.090292322	0.7963574	0.065123725	0.10212704	0.067592708	0.049383866	-0.0069881302	0.81093511	0.09579673	0.016772217	-0.0097587109	0.049752145	-0.054628993	0.75166342	0.03442901	0.039008304	0.28739173	0.3376692	-0.10143501	0.72373283	0.44892833	0.12774677	0.27584016	0.343346	0.019913523	0.70037237	0.43101031	0.0049377294	0.37986431	0.70623253	-0.15842652	0.48772576	0.73246735	0.17981072	0.4736386	0.75543413	-0.13927118	0.54836176	0.77930495	0.097844527	0.33484839	0.83843651	0.031207015	0.51985061	1.2479729	-0.16531548	0.4809795	1.2316944	0.19238274	0.42221745	1.2774518	0.003219843	0.62946712	0.93858648	-0.23047061	0.25473606	1.0259775	0.23474645	0.8614839	0.97862412	-0.13607974	0.19359023	0.82158166	0.34276118
272	1.084	0.13454782	-0.064302848	-0.031532709	0.93848962	0.059893722	0.07484694	0.069714987	0.028959227	-0.090737342	0.79932687	0.06030374	0.10143789	0.071582184	0.050704062	-0.0075523818	0.8137696	0.09052646	0.015550199	-0.0058237046	0.052900255	-0.054644681	0.75352682	0.032509513	0.03814033	0.29478614	0.33638609	-0.10220956	0.72873111	0.44441141	0.12658083	0.28395671	0.34184131	0.01923364	0.70440903	0.42662008	0.0038313011	0.38695742	0.70548755	-0.15809838	0.49703002	0.73172013	0.17901719	0.48103285	0.75467763	-0.13945585	0.55721351	0.77830867	0.096794957	0.34307621	0.83776262	0.032155732	0.52649896	1.2477498	-0.16423681	0.48898717	1.230454	0.19337986	0.42954003	1.2765663	0.0046489677	0.63706231	0.9386412	-0.22919071	0.26294329	1.0247492	0.23578059	0.86866149	0.97949324	-0.13378315	0.20169436	0.82031079	0.34358447
273	1.088	0.13502079	-0.064286346	-0.031572073	0.94315528	0.051757868	0.074261045	0.072970785	0.030290324	-0.091253843	0.8033098	0.056857216	0.10030629	0.075783345	0.052001676	-0.0081528099	0.81825741	0.08602882	0.013797243	-0.0016272774	0.056077922	-0.054659549	0.75625774	0.032662426	0.036858408	0.30232592	0.3350283	-0.1030516	0.73345466	0.43949821	0.12571988	0.29226035	0.34019948	0.018439992	0.70823472	0.42181071	0.0030228109	0.39413865	0.7047175	-0.15770064	0.50642118	0.73082402	0.17821297	0.48849385	0.75391676	-0.13965393	0.56582514	0.77730888	0.095700469	0.35129439	0.83717489	0.033099301	0.53312995	1.2475389	-0.16311424	0.49701731	1.2292373	0.19437083	0.43685404	1.2756721	0.0060862807	0.64454267	0.93870672	-0.22794944	0.27126299	1.0234412	0.23681258	0.87574321	0.98024725	-0.13153349	0.2100016	0.81892234	0.34441775
